<svg version="1.0" xmlns="http://www.w3.org/2000/svg" viewBox="0 0 186.000000 178.000000"  preserveAspectRatio="xMidYMid meet">
  <g transform="translate(0.000000,178.000000) scale(0.100000,-0.100000)" fill="#ffffff" stroke="none">
    <path d="M880 1675 l0 -45 40 0 40 0 0 45 0 45 -40 0 -40 0 0 -45z"/>
    <path d="M798 1689 c-15 -4 -45 -10 -65 -13 -21 -3 -54 -11 -73 -18 -45 -17 -187 -93 -220 -118 l-25 -20 43 0 c29 0 54 8 80 25 42 28 145 71 188 80 16 3 45 8 64 11 43 7 42 7 38 36 -3 22 -6 24 -30 17z"/>
    <path d="M310 1436 l0 -44 41 1 42 2 1 43 1 42 -42 0 -43 0 0 -44z"/>
    <path d="M1010 1671 c0 -22 5 -31 17 -31 57 0 203 -52 293 -105 26 -15 90 -21 90 -7 0 8 -70 53 -140 89 -45 23 -139 56 -195 68 -16 3 -38 8 -47 11 -14 4 -18 -1 -18 -25z"/>
    <path d="M1420 1437 l0 -44 45 0 45 0 0 44 0 43 -45 0 -45 0 0 -43z"/>
    <path d="M227 1298 c-26 -46 -76 -167 -83 -202 -2 -11 -7 -34 -10 -50 -2 -16 -7 -33 -10 -38 -3 -4 9 -8 25 -8 18 0 31 5 32 13 4 76 56 214 109 295 l22 32 -30 0 c-25 0 -34 -7 -55 -42z"/>
    <path d="M1544 1315 c9 -14 23 -36 31 -48 21 -34 71 -174 80 -224 6 -39 10 -43 35 -43 l27 0 -14 63 c-17 72 -54 168 -89 232 -22 38 -30 45 -56 45 -30 0 -30 0 -14 -25z"/>
    <path d="M905 973 c-38 -109 -79 -225 -92 -257 -12 -33 -23 -60 -23 -61 0 -4 82 -26 84 -23 5 5 176 503 176 510 0 6 -55 28 -70 28 -4 0 -38 -89 -75 -197z"/>
    <path d="M671 1047 c-6 -8 -49 -40 -96 -72 -47 -32 -85 -61 -85 -65 0 -5 126 -110 190 -158 15 -11 21 -8 43 22 l26 34 -64 49 -64 49 64 43 64 44 -27 33 c-30 38 -35 40 -51 21z m-69 -137 c-5 -32 -11 -37 -30 -18 -9 9 -8 16 5 30 23 26 30 22 25 -12z"/>
    <path d="M1116 1026 l-26 -34 60 -39 c33 -21 60 -41 60 -45 0 -4 -27 -28 -60 -54 -64 -50 -63 -47 -20 -95 14 -16 23 -11 115 63 55 44 101 83 102 86 2 6 -148 117 -192 144 -8 5 -23 -5 -39 -26z m148 -105 c13 -14 14 -20 4 -28 -29 -22 -33 -20 -33 13 0 39 5 42 29 15z"/>
    <path d="M90 905 l0 -45 45 0 45 0 0 45 0 45 -45 0 -45 0 0 -45z"/>
    <path d="M1660 905 l0 -45 45 0 45 0 0 45 0 45 -45 0 -45 0 0 -45z"/>
    <path d="M123 804 c3 -10 13 -53 22 -94 10 -41 36 -112 58 -157 37 -75 44 -83 69 -83 15 0 28 2 28 4 0 3 -14 27 -30 53 -37 59 -77 170 -86 236 -4 28 -12 47 -19 47 -8 0 -21 3 -30 7 -13 5 -16 2 -12 -13z"/>
    <path d="M1683 812 c-15 -2 -23 -10 -23 -24 0 -60 -57 -212 -110 -293 l-19 -31 34 4 c31 4 37 10 64 67 36 73 51 112 57 140 2 11 10 46 18 78 14 61 13 65 -21 59z"/>
    <path d="M310 375 l0 -45 43 0 42 0 -3 45 -4 45 -39 0 -39 0 0 -45z"/>
    <path d="M1420 375 l0 -45 45 0 45 0 0 45 0 45 -45 0 -45 0 0 -45z"/>
    <path d="M440 260 c47 -37 225 -120 290 -136 36 -8 73 -18 83 -20 13 -4 17 1 17 25 0 23 -5 31 -18 31 -57 0 -232 63 -279 100 -17 14 -41 20 -72 20 l-46 0 25 -20z"/>
    <path d="M1307 260 c-29 -23 -149 -76 -193 -85 -16 -3 -46 -9 -66 -12 -34 -5 -38 -9 -38 -35 0 -23 4 -29 16 -24 9 3 28 9 42 12 56 12 159 47 202 68 52 25 150 86 150 92 0 2 -20 4 -44 4 -28 0 -52 -7 -69 -20z"/>
    <path d="M880 125 l0 -45 40 0 40 0 0 45 0 45 -40 0 -40 0 0 -45z"/>
  </g>
</svg>